G04 #@! TF.GenerationSoftware,KiCad,Pcbnew,10.0.0*
G04 #@! TF.CreationDate,2026-03-31T03:04:08+02:00*
G04 #@! TF.ProjectId,newestpcb,6e657765-7374-4706-9362-2e6b69636164,rev?*
G04 #@! TF.SameCoordinates,Original*
G04 #@! TF.FileFunction,Soldermask,Top*
G04 #@! TF.FilePolarity,Negative*
%FSLAX46Y46*%
G04 Gerber Fmt 4.6, Leading zero omitted, Abs format (unit mm)*
G04 Created by KiCad (PCBNEW 10.0.0) date 2026-03-31 03:04:08*
%MOMM*%
%LPD*%
G01*
G04 APERTURE LIST*
G04 Aperture macros list*
%AMRoundRect*
0 Rectangle with rounded corners*
0 $1 Rounding radius*
0 $2 $3 $4 $5 $6 $7 $8 $9 X,Y pos of 4 corners*
0 Add a 4 corners polygon primitive as box body*
4,1,4,$2,$3,$4,$5,$6,$7,$8,$9,$2,$3,0*
0 Add four circle primitives for the rounded corners*
1,1,$1+$1,$2,$3*
1,1,$1+$1,$4,$5*
1,1,$1+$1,$6,$7*
1,1,$1+$1,$8,$9*
0 Add four rect primitives between the rounded corners*
20,1,$1+$1,$2,$3,$4,$5,0*
20,1,$1+$1,$4,$5,$6,$7,0*
20,1,$1+$1,$6,$7,$8,$9,0*
20,1,$1+$1,$8,$9,$2,$3,0*%
G04 Aperture macros list end*
%ADD10C,5.600000*%
%ADD11C,2.400000*%
%ADD12C,1.600000*%
%ADD13RoundRect,0.250000X0.550000X-0.550000X0.550000X0.550000X-0.550000X0.550000X-0.550000X-0.550000X0*%
%ADD14C,4.998720*%
%ADD15C,2.397760*%
%ADD16R,1.700000X1.700000*%
%ADD17C,1.700000*%
%ADD18C,2.200000*%
%ADD19R,1.600000X1.600000*%
%ADD20O,1.600000X1.600000*%
%ADD21R,1.800000X1.800000*%
%ADD22C,1.800000*%
%ADD23C,1.524000*%
%ADD24R,2.000000X2.000000*%
%ADD25C,2.000000*%
G04 APERTURE END LIST*
D10*
X112250000Y-38750000D03*
X195250000Y-38750000D03*
D11*
X193100000Y-90275000D03*
X193100000Y-77575000D03*
D12*
X158985000Y-72425000D03*
X161525000Y-72425000D03*
X161525000Y-80045000D03*
D13*
X158985000Y-80045000D03*
D11*
X119725000Y-77525000D03*
X119725000Y-90225000D03*
D14*
X119851980Y-54248460D03*
D15*
X125600000Y-58746800D03*
X115854020Y-62246920D03*
X114103960Y-58746800D03*
X114103960Y-54248460D03*
X114103960Y-49750120D03*
X115854020Y-46250000D03*
X119851980Y-45249240D03*
X123849940Y-46250000D03*
X125600000Y-49750120D03*
X125600000Y-54248460D03*
X123849940Y-62246920D03*
X119851980Y-63247680D03*
D16*
X182880000Y-101600000D03*
D17*
X180340000Y-101600000D03*
X177800000Y-101600000D03*
X175260000Y-101600000D03*
X172720000Y-101600000D03*
X170180000Y-101600000D03*
X167640000Y-101600000D03*
X165100000Y-101600000D03*
X162560000Y-101600000D03*
X160020000Y-101600000D03*
D14*
X166497960Y-54248460D03*
D15*
X172245980Y-58746800D03*
X162500000Y-62246920D03*
X160749940Y-58746800D03*
X160749940Y-54248460D03*
X160749940Y-49750120D03*
X162500000Y-46250000D03*
X166497960Y-45249240D03*
X170495920Y-46250000D03*
X172245980Y-49750120D03*
X172245980Y-54248460D03*
X170495920Y-62246920D03*
X166497960Y-63247680D03*
D13*
X181375000Y-80045000D03*
D12*
X183915000Y-80045000D03*
X183915000Y-72425000D03*
X181375000Y-72425000D03*
D13*
X112210000Y-80045000D03*
D12*
X114750000Y-80045000D03*
X114750000Y-72425000D03*
X112210000Y-72425000D03*
D14*
X187548020Y-54248460D03*
D15*
X193296040Y-58746800D03*
X183550060Y-62246920D03*
X181800000Y-58746800D03*
X181800000Y-54248460D03*
X181800000Y-49750120D03*
X183550060Y-46250000D03*
X187548020Y-45249240D03*
X191545980Y-46250000D03*
X193296040Y-49750120D03*
X193296040Y-54248460D03*
X191545980Y-62246920D03*
X187548020Y-63247680D03*
D13*
X164575000Y-80045000D03*
D12*
X167115000Y-80045000D03*
X167115000Y-72425000D03*
X164575000Y-72425000D03*
D13*
X175775000Y-80045000D03*
D12*
X178315000Y-80045000D03*
X178315000Y-72425000D03*
X175775000Y-72425000D03*
D13*
X117800000Y-80030000D03*
D12*
X120340000Y-80030000D03*
X120340000Y-72410000D03*
X117800000Y-72410000D03*
D16*
X150700000Y-83050000D03*
D17*
X148160000Y-83050000D03*
D14*
X141001980Y-54248460D03*
D15*
X146750000Y-58746800D03*
X137004020Y-62246920D03*
X135253960Y-58746800D03*
X135253960Y-54248460D03*
X135253960Y-49750120D03*
X137004020Y-46250000D03*
X141001980Y-45249240D03*
X144999940Y-46250000D03*
X146750000Y-49750120D03*
X146750000Y-54248460D03*
X144999940Y-62246920D03*
X141001980Y-63247680D03*
D13*
X192580000Y-80035000D03*
D12*
X195120000Y-80035000D03*
X195120000Y-72415000D03*
X192580000Y-72415000D03*
D13*
X145800000Y-80020000D03*
D12*
X148340000Y-80020000D03*
X148340000Y-72400000D03*
X145800000Y-72400000D03*
D18*
X156150000Y-86650000D03*
X156150000Y-101650000D03*
D16*
X153940000Y-79450000D03*
D17*
X151400000Y-79450000D03*
D16*
X156200000Y-83000000D03*
D17*
X153660000Y-83000000D03*
D13*
X140200000Y-80020000D03*
D12*
X142740000Y-80020000D03*
X142740000Y-72400000D03*
X140200000Y-72400000D03*
D13*
X123405000Y-80035000D03*
D12*
X125945000Y-80035000D03*
X125945000Y-72415000D03*
X123405000Y-72415000D03*
D19*
X151030000Y-86360000D03*
D20*
X148490000Y-86360000D03*
X145950000Y-86360000D03*
X143410000Y-86360000D03*
X140870000Y-86360000D03*
X138330000Y-86360000D03*
X135790000Y-86360000D03*
X133250000Y-86360000D03*
X130710000Y-86360000D03*
X128170000Y-86360000D03*
X125630000Y-86360000D03*
X123090000Y-86360000D03*
X120550000Y-86360000D03*
X118010000Y-86360000D03*
X115470000Y-86360000D03*
X115470000Y-101600000D03*
X118010000Y-101600000D03*
X120550000Y-101600000D03*
X123090000Y-101600000D03*
X125630000Y-101600000D03*
X128170000Y-101600000D03*
X130710000Y-101600000D03*
X133250000Y-101600000D03*
X135790000Y-101600000D03*
X138330000Y-101600000D03*
X140870000Y-101600000D03*
X143410000Y-101600000D03*
X145950000Y-101600000D03*
X148490000Y-101600000D03*
X151030000Y-101600000D03*
D13*
X134600000Y-80035000D03*
D12*
X137140000Y-80035000D03*
X137140000Y-72415000D03*
X134600000Y-72415000D03*
D16*
X182880000Y-85090000D03*
D17*
X180340000Y-85090000D03*
X177800000Y-85090000D03*
X175260000Y-85090000D03*
X172720000Y-85090000D03*
X170180000Y-85090000D03*
X167640000Y-85090000D03*
X165100000Y-85090000D03*
X162560000Y-85090000D03*
X160020000Y-85090000D03*
D21*
X152480000Y-49750000D03*
D22*
X155020000Y-49750000D03*
D23*
X196475000Y-92675000D03*
X196475000Y-90135000D03*
X196475000Y-87595000D03*
X196475000Y-85055000D03*
D13*
X186975000Y-80045000D03*
D12*
X189515000Y-80045000D03*
X189515000Y-72425000D03*
X186975000Y-72425000D03*
D21*
X152480000Y-58750000D03*
D22*
X155020000Y-58750000D03*
D13*
X129005000Y-80035000D03*
D12*
X131545000Y-80035000D03*
X131545000Y-72415000D03*
X129005000Y-72415000D03*
D16*
X182880000Y-82550000D03*
D17*
X180340000Y-82550000D03*
X177800000Y-82550000D03*
X175260000Y-82550000D03*
X172720000Y-82550000D03*
X170180000Y-82550000D03*
X167640000Y-82550000D03*
X165100000Y-82550000D03*
X162560000Y-82550000D03*
X160020000Y-82550000D03*
D13*
X170175000Y-80035000D03*
D12*
X172715000Y-80035000D03*
X172715000Y-72415000D03*
X170175000Y-72415000D03*
D16*
X165100000Y-87630000D03*
D17*
X167640000Y-87630000D03*
X170180000Y-87630000D03*
X172720000Y-87630000D03*
X175260000Y-87630000D03*
X177800000Y-87630000D03*
X180340000Y-87630000D03*
D11*
X140225000Y-77550000D03*
X140225000Y-90250000D03*
X160300000Y-90275000D03*
X160300000Y-77575000D03*
X115625000Y-90200000D03*
X115625000Y-77500000D03*
X176700000Y-90275000D03*
X176700000Y-77575000D03*
X111525000Y-90200000D03*
X111525000Y-77500000D03*
X123825000Y-90225000D03*
X123825000Y-77525000D03*
X164400000Y-90275000D03*
X164400000Y-77575000D03*
X132025000Y-90225000D03*
X132025000Y-77525000D03*
X184900000Y-90275000D03*
X184900000Y-77575000D03*
X136125000Y-90250000D03*
X136125000Y-77550000D03*
X172600000Y-90275000D03*
X172600000Y-77575000D03*
X180800000Y-90275000D03*
X180800000Y-77575000D03*
X127925000Y-90225000D03*
X127925000Y-77525000D03*
X168500000Y-90275000D03*
X168500000Y-77575000D03*
X189000000Y-90275000D03*
X189000000Y-77575000D03*
X144325000Y-77550000D03*
X144325000Y-90250000D03*
D24*
X187550000Y-96850000D03*
D25*
X195150000Y-96850000D03*
M02*
