G04 #@! TF.GenerationSoftware,KiCad,Pcbnew,10.0.0*
G04 #@! TF.CreationDate,2026-03-31T03:04:07+02:00*
G04 #@! TF.ProjectId,newestpcb,6e657765-7374-4706-9362-2e6b69636164,rev?*
G04 #@! TF.SameCoordinates,Original*
G04 #@! TF.FileFunction,Copper,L1,Top*
G04 #@! TF.FilePolarity,Positive*
%FSLAX46Y46*%
G04 Gerber Fmt 4.6, Leading zero omitted, Abs format (unit mm)*
G04 Created by KiCad (PCBNEW 10.0.0) date 2026-03-31 03:04:07*
%MOMM*%
%LPD*%
G01*
G04 APERTURE LIST*
G04 Aperture macros list*
%AMRoundRect*
0 Rectangle with rounded corners*
0 $1 Rounding radius*
0 $2 $3 $4 $5 $6 $7 $8 $9 X,Y pos of 4 corners*
0 Add a 4 corners polygon primitive as box body*
4,1,4,$2,$3,$4,$5,$6,$7,$8,$9,$2,$3,0*
0 Add four circle primitives for the rounded corners*
1,1,$1+$1,$2,$3*
1,1,$1+$1,$4,$5*
1,1,$1+$1,$6,$7*
1,1,$1+$1,$8,$9*
0 Add four rect primitives between the rounded corners*
20,1,$1+$1,$2,$3,$4,$5,0*
20,1,$1+$1,$4,$5,$6,$7,0*
20,1,$1+$1,$6,$7,$8,$9,0*
20,1,$1+$1,$8,$9,$2,$3,0*%
G04 Aperture macros list end*
G04 #@! TA.AperFunction,ComponentPad*
%ADD10C,5.600000*%
G04 #@! TD*
G04 #@! TA.AperFunction,ComponentPad*
%ADD11C,2.400000*%
G04 #@! TD*
G04 #@! TA.AperFunction,ComponentPad*
%ADD12C,1.600000*%
G04 #@! TD*
G04 #@! TA.AperFunction,ComponentPad*
%ADD13RoundRect,0.250000X0.550000X-0.550000X0.550000X0.550000X-0.550000X0.550000X-0.550000X-0.550000X0*%
G04 #@! TD*
G04 #@! TA.AperFunction,ComponentPad*
%ADD14C,2.397760*%
G04 #@! TD*
G04 #@! TA.AperFunction,ComponentPad*
%ADD15R,1.700000X1.700000*%
G04 #@! TD*
G04 #@! TA.AperFunction,ComponentPad*
%ADD16C,1.700000*%
G04 #@! TD*
G04 #@! TA.AperFunction,ComponentPad*
%ADD17C,2.200000*%
G04 #@! TD*
G04 #@! TA.AperFunction,ComponentPad*
%ADD18R,1.600000X1.600000*%
G04 #@! TD*
G04 #@! TA.AperFunction,ComponentPad*
%ADD19O,1.600000X1.600000*%
G04 #@! TD*
G04 #@! TA.AperFunction,ComponentPad*
%ADD20R,1.800000X1.800000*%
G04 #@! TD*
G04 #@! TA.AperFunction,ComponentPad*
%ADD21C,1.800000*%
G04 #@! TD*
G04 #@! TA.AperFunction,ComponentPad*
%ADD22C,1.524000*%
G04 #@! TD*
G04 #@! TA.AperFunction,ComponentPad*
%ADD23R,2.000000X2.000000*%
G04 #@! TD*
G04 #@! TA.AperFunction,ComponentPad*
%ADD24C,2.000000*%
G04 #@! TD*
G04 #@! TA.AperFunction,ViaPad*
%ADD25C,0.600000*%
G04 #@! TD*
G04 #@! TA.AperFunction,ViaPad*
%ADD26C,1.000000*%
G04 #@! TD*
G04 #@! TA.AperFunction,Conductor*
%ADD27C,0.152400*%
G04 #@! TD*
G04 #@! TA.AperFunction,Conductor*
%ADD28C,1.000000*%
G04 #@! TD*
G04 APERTURE END LIST*
D10*
X112250000Y-38750000D03*
X195250000Y-38750000D03*
D11*
X193100000Y-90275000D03*
X193100000Y-77575000D03*
D12*
X158985000Y-72425000D03*
X161525000Y-72425000D03*
X161525000Y-80045000D03*
D13*
X158985000Y-80045000D03*
D11*
X119725000Y-77525000D03*
X119725000Y-90225000D03*
D14*
X125600000Y-58746800D03*
X115854020Y-62246920D03*
X114103960Y-58746800D03*
X114103960Y-54248460D03*
X114103960Y-49750120D03*
X115854020Y-46250000D03*
X119851980Y-45249240D03*
X123849940Y-46250000D03*
X125600000Y-49750120D03*
X125600000Y-54248460D03*
X123849940Y-62246920D03*
X119851980Y-63247680D03*
D15*
X182880000Y-101600000D03*
D16*
X180340000Y-101600000D03*
X177800000Y-101600000D03*
X175260000Y-101600000D03*
X172720000Y-101600000D03*
X170180000Y-101600000D03*
X167640000Y-101600000D03*
X165100000Y-101600000D03*
X162560000Y-101600000D03*
X160020000Y-101600000D03*
D14*
X172245980Y-58746800D03*
X162500000Y-62246920D03*
X160749940Y-58746800D03*
X160749940Y-54248460D03*
X160749940Y-49750120D03*
X162500000Y-46250000D03*
X166497960Y-45249240D03*
X170495920Y-46250000D03*
X172245980Y-49750120D03*
X172245980Y-54248460D03*
X170495920Y-62246920D03*
X166497960Y-63247680D03*
D13*
X181375000Y-80045000D03*
D12*
X183915000Y-80045000D03*
X183915000Y-72425000D03*
X181375000Y-72425000D03*
D13*
X112210000Y-80045000D03*
D12*
X114750000Y-80045000D03*
X114750000Y-72425000D03*
X112210000Y-72425000D03*
D14*
X193296040Y-58746800D03*
X183550060Y-62246920D03*
X181800000Y-58746800D03*
X181800000Y-54248460D03*
X181800000Y-49750120D03*
X183550060Y-46250000D03*
X187548020Y-45249240D03*
X191545980Y-46250000D03*
X193296040Y-49750120D03*
X193296040Y-54248460D03*
X191545980Y-62246920D03*
X187548020Y-63247680D03*
D13*
X164575000Y-80045000D03*
D12*
X167115000Y-80045000D03*
X167115000Y-72425000D03*
X164575000Y-72425000D03*
D13*
X175775000Y-80045000D03*
D12*
X178315000Y-80045000D03*
X178315000Y-72425000D03*
X175775000Y-72425000D03*
D13*
X117800000Y-80030000D03*
D12*
X120340000Y-80030000D03*
X120340000Y-72410000D03*
X117800000Y-72410000D03*
D15*
X150700000Y-83050000D03*
D16*
X148160000Y-83050000D03*
D14*
X146750000Y-58746800D03*
X137004020Y-62246920D03*
X135253960Y-58746800D03*
X135253960Y-54248460D03*
X135253960Y-49750120D03*
X137004020Y-46250000D03*
X141001980Y-45249240D03*
X144999940Y-46250000D03*
X146750000Y-49750120D03*
X146750000Y-54248460D03*
X144999940Y-62246920D03*
X141001980Y-63247680D03*
D13*
X192580000Y-80035000D03*
D12*
X195120000Y-80035000D03*
X195120000Y-72415000D03*
X192580000Y-72415000D03*
D13*
X145800000Y-80020000D03*
D12*
X148340000Y-80020000D03*
X148340000Y-72400000D03*
X145800000Y-72400000D03*
D17*
X156150000Y-86650000D03*
X156150000Y-101650000D03*
D15*
X153940000Y-79450000D03*
D16*
X151400000Y-79450000D03*
D15*
X156200000Y-83000000D03*
D16*
X153660000Y-83000000D03*
D13*
X140200000Y-80020000D03*
D12*
X142740000Y-80020000D03*
X142740000Y-72400000D03*
X140200000Y-72400000D03*
D13*
X123405000Y-80035000D03*
D12*
X125945000Y-80035000D03*
X125945000Y-72415000D03*
X123405000Y-72415000D03*
D18*
X151030000Y-86360000D03*
D19*
X148490000Y-86360000D03*
X145950000Y-86360000D03*
X143410000Y-86360000D03*
X140870000Y-86360000D03*
X138330000Y-86360000D03*
X135790000Y-86360000D03*
X133250000Y-86360000D03*
X130710000Y-86360000D03*
X128170000Y-86360000D03*
X125630000Y-86360000D03*
X123090000Y-86360000D03*
X120550000Y-86360000D03*
X118010000Y-86360000D03*
X115470000Y-86360000D03*
X115470000Y-101600000D03*
X118010000Y-101600000D03*
X120550000Y-101600000D03*
X123090000Y-101600000D03*
X125630000Y-101600000D03*
X128170000Y-101600000D03*
X130710000Y-101600000D03*
X133250000Y-101600000D03*
X135790000Y-101600000D03*
X138330000Y-101600000D03*
X140870000Y-101600000D03*
X143410000Y-101600000D03*
X145950000Y-101600000D03*
X148490000Y-101600000D03*
X151030000Y-101600000D03*
D13*
X134600000Y-80035000D03*
D12*
X137140000Y-80035000D03*
X137140000Y-72415000D03*
X134600000Y-72415000D03*
D15*
X182880000Y-85090000D03*
D16*
X180340000Y-85090000D03*
X177800000Y-85090000D03*
X175260000Y-85090000D03*
X172720000Y-85090000D03*
X170180000Y-85090000D03*
X167640000Y-85090000D03*
X165100000Y-85090000D03*
X162560000Y-85090000D03*
X160020000Y-85090000D03*
D20*
X152480000Y-49750000D03*
D21*
X155020000Y-49750000D03*
D22*
X196475000Y-92675000D03*
X196475000Y-90135000D03*
X196475000Y-87595000D03*
X196475000Y-85055000D03*
D13*
X186975000Y-80045000D03*
D12*
X189515000Y-80045000D03*
X189515000Y-72425000D03*
X186975000Y-72425000D03*
D20*
X152480000Y-58750000D03*
D21*
X155020000Y-58750000D03*
D13*
X129005000Y-80035000D03*
D12*
X131545000Y-80035000D03*
X131545000Y-72415000D03*
X129005000Y-72415000D03*
D15*
X182880000Y-82550000D03*
D16*
X180340000Y-82550000D03*
X177800000Y-82550000D03*
X175260000Y-82550000D03*
X172720000Y-82550000D03*
X170180000Y-82550000D03*
X167640000Y-82550000D03*
X165100000Y-82550000D03*
X162560000Y-82550000D03*
X160020000Y-82550000D03*
D13*
X170175000Y-80035000D03*
D12*
X172715000Y-80035000D03*
X172715000Y-72415000D03*
X170175000Y-72415000D03*
D15*
X165100000Y-87630000D03*
D16*
X167640000Y-87630000D03*
X170180000Y-87630000D03*
X172720000Y-87630000D03*
X175260000Y-87630000D03*
X177800000Y-87630000D03*
X180340000Y-87630000D03*
D11*
X140225000Y-77550000D03*
X140225000Y-90250000D03*
X160300000Y-90275000D03*
X160300000Y-77575000D03*
X115625000Y-90200000D03*
X115625000Y-77500000D03*
X176700000Y-90275000D03*
X176700000Y-77575000D03*
X111525000Y-90200000D03*
X111525000Y-77500000D03*
X123825000Y-90225000D03*
X123825000Y-77525000D03*
X164400000Y-90275000D03*
X164400000Y-77575000D03*
X132025000Y-90225000D03*
X132025000Y-77525000D03*
X184900000Y-90275000D03*
X184900000Y-77575000D03*
X136125000Y-90250000D03*
X136125000Y-77550000D03*
X172600000Y-90275000D03*
X172600000Y-77575000D03*
X180800000Y-90275000D03*
X180800000Y-77575000D03*
X127925000Y-90225000D03*
X127925000Y-77525000D03*
X168500000Y-90275000D03*
X168500000Y-77575000D03*
X189000000Y-90275000D03*
X189000000Y-77575000D03*
X144325000Y-77550000D03*
X144325000Y-90250000D03*
D23*
X187550000Y-96850000D03*
D24*
X195150000Y-96850000D03*
D25*
X157700000Y-89900000D03*
X157700000Y-91250000D03*
X159200000Y-91950000D03*
X181450000Y-92600000D03*
X157700000Y-93600000D03*
X145900000Y-93600000D03*
X180550000Y-96310000D03*
X151150000Y-97950000D03*
X129800000Y-95300000D03*
X157700000Y-95300000D03*
X179000000Y-94350000D03*
X167650000Y-100050000D03*
X194350000Y-85100000D03*
X152950000Y-98950000D03*
D26*
X157200000Y-76750000D03*
D25*
X148350000Y-75475000D03*
X151150000Y-75500000D03*
X149750000Y-75475000D03*
D26*
X183550060Y-67374940D03*
X162500060Y-67374940D03*
X137025000Y-67375000D03*
X159300000Y-69100000D03*
X133825000Y-69100000D03*
X180375000Y-69100000D03*
X119500000Y-41250000D03*
X162500000Y-41250000D03*
X137000000Y-41250000D03*
X140975000Y-39650000D03*
D25*
X121750000Y-39650000D03*
D26*
X166500000Y-39650000D03*
X170500000Y-38025000D03*
X145000000Y-38025000D03*
X123849940Y-38025000D03*
X128100000Y-36400000D03*
X148825000Y-36400000D03*
X174575000Y-36400000D03*
D27*
X142750000Y-80030000D02*
X142740000Y-80020000D01*
X142750000Y-85700000D02*
X142750000Y-80030000D01*
X143410000Y-86360000D02*
X142750000Y-85700000D01*
X142500400Y-87990400D02*
X140870000Y-86360000D01*
X147262104Y-89900000D02*
X145352504Y-87990400D01*
X145352504Y-87990400D02*
X142500400Y-87990400D01*
X157700000Y-89900000D02*
X147262104Y-89900000D01*
X145226252Y-88295200D02*
X140265200Y-88295200D01*
X148181052Y-91250000D02*
X145226252Y-88295200D01*
X140265200Y-88295200D02*
X138330000Y-86360000D01*
X157700000Y-91250000D02*
X148181052Y-91250000D01*
X138030000Y-88600000D02*
X135790000Y-86360000D01*
X159200000Y-91950000D02*
X148450000Y-91950000D01*
X148450000Y-91950000D02*
X145100000Y-88600000D01*
X145100000Y-88600000D02*
X138030000Y-88600000D01*
X130700000Y-86370000D02*
X130700000Y-88900000D01*
X130710000Y-86360000D02*
X130700000Y-86370000D01*
X130700000Y-88900000D02*
X132025000Y-90225000D01*
X128170000Y-89980000D02*
X128170000Y-86360000D01*
X127925000Y-90225000D02*
X128170000Y-89980000D01*
X125630000Y-86370000D02*
X125630000Y-86360000D01*
X123825000Y-90225000D02*
X123825000Y-88175000D01*
X123825000Y-88175000D02*
X125630000Y-86370000D01*
X123090000Y-86860000D02*
X123090000Y-86360000D01*
X119725000Y-90225000D02*
X123090000Y-86860000D01*
X120490000Y-86360000D02*
X120550000Y-86360000D01*
X116650000Y-90200000D02*
X120490000Y-86360000D01*
X115625000Y-90200000D02*
X116650000Y-90200000D01*
X115365000Y-86360000D02*
X115470000Y-86360000D01*
X111525000Y-90200000D02*
X115365000Y-86360000D01*
X148490000Y-100605000D02*
X148490000Y-101600000D01*
X151150000Y-97950000D02*
X151145000Y-97950000D01*
X151145000Y-97950000D02*
X148490000Y-100605000D01*
X160669200Y-97169200D02*
X165100000Y-101600000D01*
X139225800Y-97169200D02*
X160669200Y-97169200D01*
X135790000Y-101600000D02*
X135790000Y-100605000D01*
X135790000Y-100605000D02*
X139225800Y-97169200D01*
X162904400Y-96864400D02*
X167640000Y-101600000D01*
X136990600Y-96864400D02*
X162904400Y-96864400D01*
X133250000Y-101600000D02*
X133250000Y-100605000D01*
X133250000Y-100605000D02*
X136990600Y-96864400D01*
X166315400Y-96559600D02*
X172600000Y-90275000D01*
X134755400Y-96559600D02*
X166315400Y-96559600D01*
X130710000Y-100605000D02*
X134755400Y-96559600D01*
X130710000Y-101600000D02*
X130710000Y-100605000D01*
X132520200Y-96254800D02*
X158420200Y-96254800D01*
X158420200Y-96254800D02*
X164400000Y-90275000D01*
X128170000Y-100605000D02*
X132520200Y-96254800D01*
X128170000Y-101600000D02*
X128170000Y-100605000D01*
X160300000Y-93350000D02*
X160300000Y-90275000D01*
X159400000Y-94250000D02*
X160300000Y-93350000D01*
X129445000Y-94250000D02*
X159400000Y-94250000D01*
X123090000Y-101600000D02*
X123090000Y-100605000D01*
X123090000Y-100605000D02*
X129445000Y-94250000D01*
X137225000Y-93250000D02*
X140225000Y-90250000D01*
X128600000Y-93250000D02*
X137225000Y-93250000D01*
X121500000Y-100350000D02*
X128600000Y-93250000D01*
X116720000Y-100350000D02*
X121500000Y-100350000D01*
X115470000Y-101600000D02*
X116720000Y-100350000D01*
X194350000Y-85100000D02*
X194340000Y-85090000D01*
X194340000Y-85090000D02*
X182880000Y-85090000D01*
D28*
X116050000Y-68850000D02*
X117800000Y-70600000D01*
X117800000Y-70600000D02*
X117800000Y-72410000D01*
X109925000Y-65625000D02*
X113150000Y-68850000D01*
X113150000Y-68850000D02*
X116050000Y-68850000D01*
X109925000Y-47625000D02*
X109925000Y-65625000D01*
X117900000Y-39650000D02*
X109925000Y-47625000D01*
X121750000Y-39650000D02*
X117900000Y-39650000D01*
X115854020Y-44895980D02*
X115854020Y-46250000D01*
X119500000Y-41250000D02*
X115854020Y-44895980D01*
X120000760Y-45249240D02*
X119851980Y-45249240D01*
X121750000Y-43500000D02*
X120000760Y-45249240D01*
X121750000Y-39650000D02*
X121750000Y-43500000D01*
D27*
X121750000Y-39650000D02*
X121650000Y-39750000D01*
X115980000Y-81275000D02*
X114750000Y-80045000D01*
X193100000Y-91972056D02*
X193100000Y-90275000D01*
X190722056Y-94350000D02*
X193100000Y-91972056D01*
X179000000Y-94350000D02*
X190722056Y-94350000D01*
X145900000Y-93600000D02*
X157700000Y-93600000D01*
X182575000Y-92600000D02*
X184900000Y-90275000D01*
X181450000Y-92600000D02*
X182575000Y-92600000D01*
X195395000Y-85055000D02*
X196475000Y-85055000D01*
X191050000Y-89400000D02*
X195395000Y-85055000D01*
X174400000Y-93350000D02*
X189800000Y-93350000D01*
X167650000Y-100050000D02*
X167700000Y-100050000D01*
X189800000Y-93350000D02*
X191050000Y-92100000D01*
X191050000Y-92100000D02*
X191050000Y-89400000D01*
X167700000Y-100050000D02*
X174400000Y-93350000D01*
X175260000Y-101600000D02*
X180550000Y-96310000D01*
X182880000Y-101600000D02*
X180340000Y-101600000D01*
X177800000Y-101600000D02*
X180340000Y-101600000D01*
X157370000Y-98950000D02*
X160020000Y-101600000D01*
X152950000Y-98950000D02*
X157370000Y-98950000D01*
X158910000Y-97950000D02*
X151150000Y-97950000D01*
X162560000Y-101600000D02*
X158910000Y-97950000D01*
X157700000Y-95300000D02*
X129800000Y-95300000D01*
X195000000Y-89070000D02*
X196475000Y-87595000D01*
X195000000Y-91400000D02*
X195000000Y-89070000D01*
X191250000Y-95150000D02*
X195000000Y-91400000D01*
X174090000Y-95150000D02*
X191250000Y-95150000D01*
X167640000Y-101600000D02*
X174090000Y-95150000D01*
X190400000Y-101600000D02*
X182880000Y-101600000D01*
X195150000Y-96850000D02*
X190400000Y-101600000D01*
X196475000Y-95525000D02*
X196475000Y-92675000D01*
X195150000Y-96850000D02*
X196475000Y-95525000D01*
X196450000Y-92700000D02*
X196475000Y-92675000D01*
X192580000Y-79630000D02*
X192580000Y-80035000D01*
X189700000Y-75950000D02*
X191100000Y-77350000D01*
X191100000Y-78150000D02*
X192580000Y-79630000D01*
X191100000Y-77350000D02*
X191100000Y-78150000D01*
X186525000Y-75950000D02*
X189700000Y-75950000D01*
X184900000Y-77575000D02*
X186525000Y-75950000D01*
X148910000Y-79450000D02*
X148340000Y-80020000D01*
X151400000Y-79450000D02*
X148910000Y-79450000D01*
X148160000Y-80200000D02*
X148340000Y-80020000D01*
X148160000Y-83050000D02*
X148160000Y-80200000D01*
X157475000Y-52205000D02*
X155020000Y-49750000D01*
X157475000Y-69175000D02*
X157475000Y-52205000D01*
X151150000Y-75500000D02*
X157475000Y-69175000D01*
X155020000Y-70205000D02*
X155020000Y-58750000D01*
X149750000Y-75475000D02*
X155020000Y-70205000D01*
X152480000Y-71345000D02*
X152480000Y-58750000D01*
X148350000Y-75475000D02*
X152480000Y-71345000D01*
X140225000Y-90250000D02*
X144325000Y-90250000D01*
X182880000Y-81470000D02*
X182685000Y-81275000D01*
X182880000Y-82550000D02*
X182880000Y-81470000D01*
X181600000Y-83830000D02*
X182880000Y-82550000D01*
X180340000Y-87630000D02*
X181600000Y-86370000D01*
X181600000Y-86370000D02*
X181600000Y-83830000D01*
X165100000Y-87630000D02*
X165100000Y-85090000D01*
X167640000Y-87630000D02*
X167640000Y-85090000D01*
X170180000Y-87630000D02*
X170180000Y-85090000D01*
X172720000Y-87630000D02*
X172720000Y-85090000D01*
X175260000Y-87630000D02*
X175260000Y-85090000D01*
X177800000Y-87630000D02*
X177800000Y-85090000D01*
X193880000Y-81275000D02*
X195120000Y-80035000D01*
X190745000Y-81275000D02*
X193880000Y-81275000D01*
X189515000Y-80045000D02*
X190745000Y-81275000D01*
X188285000Y-81275000D02*
X189515000Y-80045000D01*
X185145000Y-81275000D02*
X188285000Y-81275000D01*
X183915000Y-80045000D02*
X185145000Y-81275000D01*
X182685000Y-81275000D02*
X183915000Y-80045000D01*
X179545000Y-81275000D02*
X182685000Y-81275000D01*
X178315000Y-80045000D02*
X179545000Y-81275000D01*
X177085000Y-81275000D02*
X178315000Y-80045000D01*
X173955000Y-81275000D02*
X177085000Y-81275000D01*
X172715000Y-80035000D02*
X173955000Y-81275000D01*
X171475000Y-81275000D02*
X172715000Y-80035000D01*
X168345000Y-81275000D02*
X171475000Y-81275000D01*
X167115000Y-80045000D02*
X168345000Y-81275000D01*
X165885000Y-81275000D02*
X167115000Y-80045000D01*
X162755000Y-81275000D02*
X165885000Y-81275000D01*
X161525000Y-80045000D02*
X162755000Y-81275000D01*
X160295000Y-81275000D02*
X161525000Y-80045000D01*
X149595000Y-81275000D02*
X160295000Y-81275000D01*
X148340000Y-80020000D02*
X149595000Y-81275000D01*
X164400000Y-79870000D02*
X164575000Y-80045000D01*
X119095000Y-81275000D02*
X115980000Y-81275000D01*
X120340000Y-80030000D02*
X119095000Y-81275000D01*
X121585000Y-81275000D02*
X120340000Y-80030000D01*
X125945000Y-80035000D02*
X124705000Y-81275000D01*
X124705000Y-81275000D02*
X121585000Y-81275000D01*
X127185000Y-81275000D02*
X125945000Y-80035000D01*
X130305000Y-81275000D02*
X127185000Y-81275000D01*
X131545000Y-80035000D02*
X130305000Y-81275000D01*
X132785000Y-81275000D02*
X131545000Y-80035000D01*
X135900000Y-81275000D02*
X132785000Y-81275000D01*
X137140000Y-80035000D02*
X135900000Y-81275000D01*
X138380000Y-81275000D02*
X137140000Y-80035000D01*
X141485000Y-81275000D02*
X138380000Y-81275000D01*
X142740000Y-80020000D02*
X141485000Y-81275000D01*
X143995000Y-81275000D02*
X142740000Y-80020000D01*
X147085000Y-81275000D02*
X143995000Y-81275000D01*
X148340000Y-80020000D02*
X147085000Y-81275000D01*
D28*
X157200000Y-76750000D02*
X161525000Y-72425000D01*
X147090000Y-76750000D02*
X157200000Y-76750000D01*
X142740000Y-72400000D02*
X147090000Y-76750000D01*
D27*
X152480000Y-58750000D02*
X152480000Y-49750000D01*
X139720000Y-80020000D02*
X140200000Y-80020000D01*
X138650000Y-78950000D02*
X139720000Y-80020000D01*
X138650000Y-77600000D02*
X138650000Y-78950000D01*
X133575000Y-75975000D02*
X137025000Y-75975000D01*
X137025000Y-75975000D02*
X138650000Y-77600000D01*
X132025000Y-77525000D02*
X133575000Y-75975000D01*
X134600000Y-80035000D02*
X133960000Y-80035000D01*
X122235000Y-80035000D02*
X119725000Y-77525000D01*
X123405000Y-80035000D02*
X122235000Y-80035000D01*
X117800000Y-79675000D02*
X115625000Y-77500000D01*
X117800000Y-80030000D02*
X117800000Y-79675000D01*
X115750000Y-62350940D02*
X115854020Y-62246920D01*
X183550060Y-67374940D02*
X183550000Y-67375000D01*
D28*
X158985000Y-72425000D02*
X158985000Y-71540000D01*
X158985000Y-71540000D02*
X162500060Y-68024940D01*
X137025000Y-62267900D02*
X137004020Y-62246920D01*
X162500060Y-68024940D02*
X162500060Y-67374940D01*
D27*
X115800000Y-62300940D02*
X115854020Y-62246920D01*
D28*
X162500060Y-67374940D02*
X162500060Y-62246980D01*
X183550060Y-62246920D02*
X183550060Y-67374940D01*
X137025000Y-67375000D02*
X137025000Y-62267900D01*
X162500060Y-62246980D02*
X162500000Y-62246920D01*
X180375000Y-69100000D02*
X180375000Y-60171800D01*
X133825000Y-60171800D02*
X135250000Y-58746800D01*
X140200000Y-72400000D02*
X136900000Y-69100000D01*
X133825000Y-69100000D02*
X133825000Y-60171800D01*
X136900000Y-69100000D02*
X133825000Y-69100000D01*
X159300000Y-69100000D02*
X159300000Y-60171800D01*
X159300000Y-60171800D02*
X160725000Y-58746800D01*
X180375000Y-60171800D02*
X181800000Y-58746800D01*
X134600000Y-72415000D02*
X131325000Y-69140000D01*
X131325000Y-69140000D02*
X131325000Y-58177420D01*
X131325000Y-58177420D02*
X135253960Y-54248460D01*
X113825000Y-46250000D02*
X111600000Y-48475000D01*
X120000000Y-66525000D02*
X114675000Y-66525000D01*
D27*
X137004020Y-41254020D02*
X137000000Y-41250000D01*
D28*
X137004020Y-46250000D02*
X137004020Y-41254020D01*
X123405000Y-69930000D02*
X120000000Y-66525000D01*
X115854020Y-46250000D02*
X113825000Y-46250000D01*
X123405000Y-72415000D02*
X123405000Y-69930000D01*
X111600000Y-63450000D02*
X114675000Y-66525000D01*
X162500000Y-41250000D02*
X162500000Y-46250000D01*
X111600000Y-48475000D02*
X111600000Y-63450000D01*
X166500000Y-45247200D02*
X166500000Y-39650000D01*
D27*
X166497960Y-45249240D02*
X166500000Y-45247200D01*
D28*
X140975000Y-45222260D02*
X141001980Y-45249240D01*
X140975000Y-39650000D02*
X140975000Y-45222260D01*
X170500000Y-38025000D02*
X170500000Y-46245920D01*
X192580000Y-69895000D02*
X196475000Y-66000000D01*
X192580000Y-72415000D02*
X192580000Y-69895000D01*
D27*
X123849940Y-38025000D02*
X123849940Y-38199940D01*
X123849940Y-38199940D02*
X123850000Y-38200000D01*
D28*
X145000000Y-46249940D02*
X144999940Y-46250000D01*
X196475000Y-47875000D02*
X194850000Y-46250000D01*
X145000000Y-38025000D02*
X145000000Y-46249940D01*
X123849940Y-46250000D02*
X123849940Y-38025000D01*
X196475000Y-66000000D02*
X196475000Y-47875000D01*
X194850000Y-46250000D02*
X191545980Y-46250000D01*
X170500000Y-46245920D02*
X170495920Y-46250000D01*
X172245980Y-49750120D02*
X174575000Y-47421100D01*
X174575000Y-47421100D02*
X174575000Y-36400000D01*
X128100000Y-36400000D02*
X128100000Y-47250120D01*
X128100000Y-47250120D02*
X125600000Y-49750120D01*
X170175000Y-72415000D02*
X170175000Y-66875000D01*
X148825000Y-47675000D02*
X148825000Y-36400000D01*
X146750000Y-49750000D02*
X148825000Y-47675000D01*
X170175000Y-66875000D02*
X174625000Y-62425000D01*
X174625000Y-52129140D02*
X172245980Y-49750120D01*
X174625000Y-62425000D02*
X174625000Y-52129140D01*
D27*
X146750000Y-49750120D02*
X146750000Y-49750000D01*
D28*
X123849940Y-64274940D02*
X123849940Y-62246920D01*
X131545000Y-71970000D02*
X123849940Y-64274940D01*
D27*
X131545000Y-72415000D02*
X131545000Y-71970000D01*
D28*
X167115000Y-72425000D02*
X167115000Y-66960000D01*
X167115000Y-66960000D02*
X170495920Y-63579080D01*
X170495920Y-63579080D02*
X170495920Y-62246920D01*
X141015000Y-74125000D02*
X142740000Y-72400000D01*
X138850000Y-74125000D02*
X141015000Y-74125000D01*
X172715000Y-72415000D02*
X174425000Y-74125000D01*
X185615000Y-74125000D02*
X187815000Y-74125000D01*
X124235000Y-74125000D02*
X125945000Y-72415000D01*
X191215000Y-74125000D02*
X193410000Y-74125000D01*
X120340000Y-72410000D02*
X122055000Y-74125000D01*
X193410000Y-74125000D02*
X195120000Y-72415000D01*
X161525000Y-72425000D02*
X163225000Y-74125000D01*
X163225000Y-74125000D02*
X171005000Y-74125000D01*
X189515000Y-72425000D02*
X191215000Y-74125000D01*
X182215000Y-74125000D02*
X183915000Y-72425000D01*
X127655000Y-74125000D02*
X135430000Y-74125000D01*
X118625000Y-74125000D02*
X120340000Y-72410000D01*
X137140000Y-72415000D02*
X138850000Y-74125000D01*
X171005000Y-74125000D02*
X172715000Y-72415000D01*
X122055000Y-74125000D02*
X124235000Y-74125000D01*
X183915000Y-72425000D02*
X185615000Y-74125000D01*
X114750000Y-72425000D02*
X116450000Y-74125000D01*
X187815000Y-74125000D02*
X189515000Y-72425000D01*
X125945000Y-72415000D02*
X127655000Y-74125000D01*
X116450000Y-74125000D02*
X118625000Y-74125000D01*
X135430000Y-74125000D02*
X137140000Y-72415000D01*
X174425000Y-74125000D02*
X182215000Y-74125000D01*
D27*
X112210000Y-78185000D02*
X111525000Y-77500000D01*
X112210000Y-80045000D02*
X112210000Y-78185000D01*
D28*
X191545980Y-63204020D02*
X191545980Y-62246920D01*
X178315000Y-72425000D02*
X180240000Y-70500000D01*
X189875000Y-64875000D02*
X191545980Y-63204020D01*
X185850000Y-70500000D02*
X189875000Y-66475000D01*
X180240000Y-70500000D02*
X185850000Y-70500000D01*
X189875000Y-66475000D02*
X189875000Y-64875000D01*
X148340000Y-65586980D02*
X144999940Y-62246920D01*
X148340000Y-72400000D02*
X148340000Y-65586980D01*
M02*
