G04 #@! TF.GenerationSoftware,KiCad,Pcbnew,10.0.0*
G04 #@! TF.CreationDate,2026-03-31T03:04:07+02:00*
G04 #@! TF.ProjectId,newestpcb,6e657765-7374-4706-9362-2e6b69636164,rev?*
G04 #@! TF.SameCoordinates,Original*
G04 #@! TF.FileFunction,Copper,L2,Bot*
G04 #@! TF.FilePolarity,Positive*
%FSLAX46Y46*%
G04 Gerber Fmt 4.6, Leading zero omitted, Abs format (unit mm)*
G04 Created by KiCad (PCBNEW 10.0.0) date 2026-03-31 03:04:07*
%MOMM*%
%LPD*%
G01*
G04 APERTURE LIST*
G04 Aperture macros list*
%AMRoundRect*
0 Rectangle with rounded corners*
0 $1 Rounding radius*
0 $2 $3 $4 $5 $6 $7 $8 $9 X,Y pos of 4 corners*
0 Add a 4 corners polygon primitive as box body*
4,1,4,$2,$3,$4,$5,$6,$7,$8,$9,$2,$3,0*
0 Add four circle primitives for the rounded corners*
1,1,$1+$1,$2,$3*
1,1,$1+$1,$4,$5*
1,1,$1+$1,$6,$7*
1,1,$1+$1,$8,$9*
0 Add four rect primitives between the rounded corners*
20,1,$1+$1,$2,$3,$4,$5,0*
20,1,$1+$1,$4,$5,$6,$7,0*
20,1,$1+$1,$6,$7,$8,$9,0*
20,1,$1+$1,$8,$9,$2,$3,0*%
G04 Aperture macros list end*
G04 #@! TA.AperFunction,ComponentPad*
%ADD10C,5.600000*%
G04 #@! TD*
G04 #@! TA.AperFunction,ComponentPad*
%ADD11C,2.400000*%
G04 #@! TD*
G04 #@! TA.AperFunction,ComponentPad*
%ADD12C,1.600000*%
G04 #@! TD*
G04 #@! TA.AperFunction,ComponentPad*
%ADD13RoundRect,0.250000X0.550000X-0.550000X0.550000X0.550000X-0.550000X0.550000X-0.550000X-0.550000X0*%
G04 #@! TD*
G04 #@! TA.AperFunction,ComponentPad*
%ADD14C,2.397760*%
G04 #@! TD*
G04 #@! TA.AperFunction,ComponentPad*
%ADD15R,1.700000X1.700000*%
G04 #@! TD*
G04 #@! TA.AperFunction,ComponentPad*
%ADD16C,1.700000*%
G04 #@! TD*
G04 #@! TA.AperFunction,ComponentPad*
%ADD17C,2.200000*%
G04 #@! TD*
G04 #@! TA.AperFunction,ComponentPad*
%ADD18R,1.600000X1.600000*%
G04 #@! TD*
G04 #@! TA.AperFunction,ComponentPad*
%ADD19O,1.600000X1.600000*%
G04 #@! TD*
G04 #@! TA.AperFunction,ComponentPad*
%ADD20R,1.800000X1.800000*%
G04 #@! TD*
G04 #@! TA.AperFunction,ComponentPad*
%ADD21C,1.800000*%
G04 #@! TD*
G04 #@! TA.AperFunction,ComponentPad*
%ADD22C,1.524000*%
G04 #@! TD*
G04 #@! TA.AperFunction,ComponentPad*
%ADD23R,2.000000X2.000000*%
G04 #@! TD*
G04 #@! TA.AperFunction,ComponentPad*
%ADD24C,2.000000*%
G04 #@! TD*
G04 #@! TA.AperFunction,ViaPad*
%ADD25C,0.600000*%
G04 #@! TD*
G04 #@! TA.AperFunction,ViaPad*
%ADD26C,1.000000*%
G04 #@! TD*
G04 #@! TA.AperFunction,Conductor*
%ADD27C,0.152400*%
G04 #@! TD*
G04 #@! TA.AperFunction,Conductor*
%ADD28C,1.000000*%
G04 #@! TD*
G04 APERTURE END LIST*
D10*
X112250000Y-38750000D03*
X195250000Y-38750000D03*
D11*
X193100000Y-90275000D03*
X193100000Y-77575000D03*
D12*
X158985000Y-72425000D03*
X161525000Y-72425000D03*
X161525000Y-80045000D03*
D13*
X158985000Y-80045000D03*
D11*
X119725000Y-77525000D03*
X119725000Y-90225000D03*
D14*
X125600000Y-58746800D03*
X115854020Y-62246920D03*
X114103960Y-58746800D03*
X114103960Y-54248460D03*
X114103960Y-49750120D03*
X115854020Y-46250000D03*
X119851980Y-45249240D03*
X123849940Y-46250000D03*
X125600000Y-49750120D03*
X125600000Y-54248460D03*
X123849940Y-62246920D03*
X119851980Y-63247680D03*
D15*
X182880000Y-101600000D03*
D16*
X180340000Y-101600000D03*
X177800000Y-101600000D03*
X175260000Y-101600000D03*
X172720000Y-101600000D03*
X170180000Y-101600000D03*
X167640000Y-101600000D03*
X165100000Y-101600000D03*
X162560000Y-101600000D03*
X160020000Y-101600000D03*
D14*
X172245980Y-58746800D03*
X162500000Y-62246920D03*
X160749940Y-58746800D03*
X160749940Y-54248460D03*
X160749940Y-49750120D03*
X162500000Y-46250000D03*
X166497960Y-45249240D03*
X170495920Y-46250000D03*
X172245980Y-49750120D03*
X172245980Y-54248460D03*
X170495920Y-62246920D03*
X166497960Y-63247680D03*
D13*
X181375000Y-80045000D03*
D12*
X183915000Y-80045000D03*
X183915000Y-72425000D03*
X181375000Y-72425000D03*
D13*
X112210000Y-80045000D03*
D12*
X114750000Y-80045000D03*
X114750000Y-72425000D03*
X112210000Y-72425000D03*
D14*
X193296040Y-58746800D03*
X183550060Y-62246920D03*
X181800000Y-58746800D03*
X181800000Y-54248460D03*
X181800000Y-49750120D03*
X183550060Y-46250000D03*
X187548020Y-45249240D03*
X191545980Y-46250000D03*
X193296040Y-49750120D03*
X193296040Y-54248460D03*
X191545980Y-62246920D03*
X187548020Y-63247680D03*
D13*
X164575000Y-80045000D03*
D12*
X167115000Y-80045000D03*
X167115000Y-72425000D03*
X164575000Y-72425000D03*
D13*
X175775000Y-80045000D03*
D12*
X178315000Y-80045000D03*
X178315000Y-72425000D03*
X175775000Y-72425000D03*
D13*
X117800000Y-80030000D03*
D12*
X120340000Y-80030000D03*
X120340000Y-72410000D03*
X117800000Y-72410000D03*
D15*
X150700000Y-83050000D03*
D16*
X148160000Y-83050000D03*
D14*
X146750000Y-58746800D03*
X137004020Y-62246920D03*
X135253960Y-58746800D03*
X135253960Y-54248460D03*
X135253960Y-49750120D03*
X137004020Y-46250000D03*
X141001980Y-45249240D03*
X144999940Y-46250000D03*
X146750000Y-49750120D03*
X146750000Y-54248460D03*
X144999940Y-62246920D03*
X141001980Y-63247680D03*
D13*
X192580000Y-80035000D03*
D12*
X195120000Y-80035000D03*
X195120000Y-72415000D03*
X192580000Y-72415000D03*
D13*
X145800000Y-80020000D03*
D12*
X148340000Y-80020000D03*
X148340000Y-72400000D03*
X145800000Y-72400000D03*
D17*
X156150000Y-86650000D03*
X156150000Y-101650000D03*
D15*
X153940000Y-79450000D03*
D16*
X151400000Y-79450000D03*
D15*
X156200000Y-83000000D03*
D16*
X153660000Y-83000000D03*
D13*
X140200000Y-80020000D03*
D12*
X142740000Y-80020000D03*
X142740000Y-72400000D03*
X140200000Y-72400000D03*
D13*
X123405000Y-80035000D03*
D12*
X125945000Y-80035000D03*
X125945000Y-72415000D03*
X123405000Y-72415000D03*
D18*
X151030000Y-86360000D03*
D19*
X148490000Y-86360000D03*
X145950000Y-86360000D03*
X143410000Y-86360000D03*
X140870000Y-86360000D03*
X138330000Y-86360000D03*
X135790000Y-86360000D03*
X133250000Y-86360000D03*
X130710000Y-86360000D03*
X128170000Y-86360000D03*
X125630000Y-86360000D03*
X123090000Y-86360000D03*
X120550000Y-86360000D03*
X118010000Y-86360000D03*
X115470000Y-86360000D03*
X115470000Y-101600000D03*
X118010000Y-101600000D03*
X120550000Y-101600000D03*
X123090000Y-101600000D03*
X125630000Y-101600000D03*
X128170000Y-101600000D03*
X130710000Y-101600000D03*
X133250000Y-101600000D03*
X135790000Y-101600000D03*
X138330000Y-101600000D03*
X140870000Y-101600000D03*
X143410000Y-101600000D03*
X145950000Y-101600000D03*
X148490000Y-101600000D03*
X151030000Y-101600000D03*
D13*
X134600000Y-80035000D03*
D12*
X137140000Y-80035000D03*
X137140000Y-72415000D03*
X134600000Y-72415000D03*
D15*
X182880000Y-85090000D03*
D16*
X180340000Y-85090000D03*
X177800000Y-85090000D03*
X175260000Y-85090000D03*
X172720000Y-85090000D03*
X170180000Y-85090000D03*
X167640000Y-85090000D03*
X165100000Y-85090000D03*
X162560000Y-85090000D03*
X160020000Y-85090000D03*
D20*
X152480000Y-49750000D03*
D21*
X155020000Y-49750000D03*
D22*
X196475000Y-92675000D03*
X196475000Y-90135000D03*
X196475000Y-87595000D03*
X196475000Y-85055000D03*
D13*
X186975000Y-80045000D03*
D12*
X189515000Y-80045000D03*
X189515000Y-72425000D03*
X186975000Y-72425000D03*
D20*
X152480000Y-58750000D03*
D21*
X155020000Y-58750000D03*
D13*
X129005000Y-80035000D03*
D12*
X131545000Y-80035000D03*
X131545000Y-72415000D03*
X129005000Y-72415000D03*
D15*
X182880000Y-82550000D03*
D16*
X180340000Y-82550000D03*
X177800000Y-82550000D03*
X175260000Y-82550000D03*
X172720000Y-82550000D03*
X170180000Y-82550000D03*
X167640000Y-82550000D03*
X165100000Y-82550000D03*
X162560000Y-82550000D03*
X160020000Y-82550000D03*
D13*
X170175000Y-80035000D03*
D12*
X172715000Y-80035000D03*
X172715000Y-72415000D03*
X170175000Y-72415000D03*
D15*
X165100000Y-87630000D03*
D16*
X167640000Y-87630000D03*
X170180000Y-87630000D03*
X172720000Y-87630000D03*
X175260000Y-87630000D03*
X177800000Y-87630000D03*
X180340000Y-87630000D03*
D11*
X140225000Y-77550000D03*
X140225000Y-90250000D03*
X160300000Y-90275000D03*
X160300000Y-77575000D03*
X115625000Y-90200000D03*
X115625000Y-77500000D03*
X176700000Y-90275000D03*
X176700000Y-77575000D03*
X111525000Y-90200000D03*
X111525000Y-77500000D03*
X123825000Y-90225000D03*
X123825000Y-77525000D03*
X164400000Y-90275000D03*
X164400000Y-77575000D03*
X132025000Y-90225000D03*
X132025000Y-77525000D03*
X184900000Y-90275000D03*
X184900000Y-77575000D03*
X136125000Y-90250000D03*
X136125000Y-77550000D03*
X172600000Y-90275000D03*
X172600000Y-77575000D03*
X180800000Y-90275000D03*
X180800000Y-77575000D03*
X127925000Y-90225000D03*
X127925000Y-77525000D03*
X168500000Y-90275000D03*
X168500000Y-77575000D03*
X189000000Y-90275000D03*
X189000000Y-77575000D03*
X144325000Y-77550000D03*
X144325000Y-90250000D03*
D23*
X187550000Y-96850000D03*
D24*
X195150000Y-96850000D03*
D25*
X157700000Y-89900000D03*
X157700000Y-91250000D03*
X159200000Y-91950000D03*
X181450000Y-92600000D03*
X157700000Y-93600000D03*
X145900000Y-93600000D03*
X180550000Y-96310000D03*
X151150000Y-97950000D03*
X129800000Y-95300000D03*
X157700000Y-95300000D03*
X179000000Y-94350000D03*
X167650000Y-100050000D03*
X194350000Y-85100000D03*
X152950000Y-98950000D03*
D26*
X157200000Y-76750000D03*
D25*
X148350000Y-75475000D03*
X151150000Y-75500000D03*
X149750000Y-75475000D03*
D26*
X183550060Y-67374940D03*
X162500060Y-67374940D03*
X137025000Y-67375000D03*
X159300000Y-69100000D03*
X133825000Y-69100000D03*
X180375000Y-69100000D03*
X119500000Y-41250000D03*
X162500000Y-41250000D03*
X137000000Y-41250000D03*
X140975000Y-39650000D03*
D25*
X121750000Y-39650000D03*
D26*
X166500000Y-39650000D03*
X170500000Y-38025000D03*
X145000000Y-38025000D03*
X123849940Y-38025000D03*
X128100000Y-36400000D03*
X148825000Y-36400000D03*
X174575000Y-36400000D03*
D27*
X145400000Y-87650000D02*
X144700000Y-87650000D01*
X144700000Y-87650000D02*
X143410000Y-86360000D01*
X147200000Y-94000000D02*
X147200000Y-89450000D01*
X151150000Y-97950000D02*
X147200000Y-94000000D01*
X147200000Y-89450000D02*
X145400000Y-87650000D01*
X133250000Y-87850000D02*
X133250000Y-86360000D01*
X134000000Y-88600000D02*
X133250000Y-87850000D01*
X136850000Y-88600000D02*
X134000000Y-88600000D01*
X137750000Y-89500000D02*
X136850000Y-88600000D01*
X137750000Y-91250000D02*
X137750000Y-89500000D01*
X145900000Y-93600000D02*
X140100000Y-93600000D01*
X140100000Y-93600000D02*
X137750000Y-91250000D01*
X117650000Y-86995000D02*
X118010000Y-86635000D01*
X117650000Y-91050000D02*
X117650000Y-86995000D01*
X129800000Y-95300000D02*
X121900000Y-95300000D01*
X121900000Y-95300000D02*
X117650000Y-91050000D01*
X118010000Y-86635000D02*
X118010000Y-86360000D01*
X152250000Y-84600000D02*
X150700000Y-83050000D01*
X152250000Y-88700000D02*
X152250000Y-84600000D01*
X154350000Y-99350000D02*
X154350000Y-90800000D01*
X151030000Y-101600000D02*
X152100000Y-101600000D01*
X152100000Y-101600000D02*
X154350000Y-99350000D01*
X154350000Y-90800000D02*
X152250000Y-88700000D01*
X143410000Y-100605000D02*
X143410000Y-101600000D01*
X152950000Y-98950000D02*
X145065000Y-98950000D01*
X145065000Y-98950000D02*
X143410000Y-100605000D01*
X125630000Y-100745000D02*
X125630000Y-101600000D01*
X136125000Y-90250000D02*
X125630000Y-100745000D01*
X194550000Y-85300000D02*
X194550000Y-88210000D01*
X194350000Y-85100000D02*
X194550000Y-85300000D01*
X194550000Y-88210000D02*
X196475000Y-90135000D01*
D28*
X137000000Y-41250000D02*
X119500000Y-41250000D01*
X140975000Y-39650000D02*
X121750000Y-39650000D01*
X194350000Y-48696160D02*
X193296040Y-49750120D01*
X194350000Y-44100000D02*
X194350000Y-48696160D01*
X186650000Y-36400000D02*
X194350000Y-44100000D01*
X174575000Y-36400000D02*
X186650000Y-36400000D01*
X191545980Y-45045980D02*
X191545980Y-46250000D01*
X184525000Y-38025000D02*
X191545980Y-45045980D01*
X170500000Y-38025000D02*
X184525000Y-38025000D01*
D27*
X158900000Y-92800000D02*
X158400000Y-92300000D01*
X158400000Y-90600000D02*
X157700000Y-89900000D01*
X158400000Y-92300000D02*
X158400000Y-90600000D01*
X174175000Y-92800000D02*
X158900000Y-92800000D01*
X176700000Y-90275000D02*
X174175000Y-92800000D01*
X157700000Y-92600000D02*
X157700000Y-91250000D01*
X158300000Y-93200000D02*
X157700000Y-92600000D01*
X180800000Y-90275000D02*
X177875000Y-93200000D01*
X177875000Y-93200000D02*
X158300000Y-93200000D01*
X180450000Y-93600000D02*
X181450000Y-92600000D01*
X157700000Y-93600000D02*
X180450000Y-93600000D01*
X177150000Y-95300000D02*
X157700000Y-95300000D01*
X178100000Y-94350000D02*
X177150000Y-95300000D01*
X179000000Y-94350000D02*
X178100000Y-94350000D01*
X166825000Y-91950000D02*
X168500000Y-90275000D01*
X159200000Y-91950000D02*
X166825000Y-91950000D01*
X162420000Y-99200000D02*
X160020000Y-101600000D01*
X175260000Y-101600000D02*
X172860000Y-99200000D01*
X172860000Y-99200000D02*
X162420000Y-99200000D01*
X166650000Y-100050000D02*
X165100000Y-101600000D01*
X167650000Y-100050000D02*
X166650000Y-100050000D01*
X182880000Y-93970000D02*
X182880000Y-85090000D01*
X180550000Y-96300000D02*
X182880000Y-93970000D01*
X180550000Y-96310000D02*
X180550000Y-96300000D01*
X191050000Y-93350000D02*
X187550000Y-96850000D01*
X191050000Y-78800000D02*
X191050000Y-93350000D01*
X192275000Y-77575000D02*
X191050000Y-78800000D01*
X193100000Y-77575000D02*
X192275000Y-77575000D01*
X193450000Y-88100000D02*
X193450000Y-81705000D01*
X194950000Y-89600000D02*
X193450000Y-88100000D01*
X193450000Y-81705000D02*
X195120000Y-80035000D01*
X194950000Y-91150000D02*
X194950000Y-89600000D01*
X196475000Y-92675000D02*
X194950000Y-91150000D01*
X150700000Y-83050000D02*
X153940000Y-79810000D01*
X153940000Y-79810000D02*
X153940000Y-79450000D01*
X145825000Y-77550000D02*
X144325000Y-77550000D01*
X147700000Y-81600000D02*
X146875000Y-80775000D01*
X146875000Y-80775000D02*
X146875000Y-78600000D01*
X150054800Y-80595200D02*
X149050000Y-81600000D01*
X149050000Y-81600000D02*
X147700000Y-81600000D01*
X146875000Y-78600000D02*
X145825000Y-77550000D01*
X150054800Y-76595200D02*
X150054800Y-80595200D01*
X151150000Y-75500000D02*
X150054800Y-76595200D01*
X145050000Y-76000000D02*
X141775000Y-76000000D01*
X147250000Y-78200000D02*
X145050000Y-76000000D01*
X147250000Y-80718948D02*
X147250000Y-78200000D01*
X147826252Y-81295200D02*
X147250000Y-80718948D01*
X148923748Y-81295200D02*
X147826252Y-81295200D01*
X149750000Y-80468948D02*
X148923748Y-81295200D01*
X149750000Y-75475000D02*
X149750000Y-80468948D01*
X141775000Y-76000000D02*
X140225000Y-77550000D01*
X148350000Y-75475000D02*
X148350000Y-80010000D01*
X148350000Y-80010000D02*
X148340000Y-80020000D01*
D28*
X156200000Y-77750000D02*
X157200000Y-76750000D01*
X156200000Y-83000000D02*
X156200000Y-77750000D01*
X156150000Y-83050000D02*
X156200000Y-83000000D01*
X156150000Y-86650000D02*
X156150000Y-83050000D01*
X153660000Y-87610000D02*
X153660000Y-83000000D01*
X156150000Y-90100000D02*
X153660000Y-87610000D01*
X156150000Y-101650000D02*
X156150000Y-90100000D01*
X159700000Y-98100000D02*
X156150000Y-101650000D01*
X189000000Y-90275000D02*
X181175000Y-98100000D01*
X181175000Y-98100000D02*
X159700000Y-98100000D01*
X185575000Y-74150000D02*
X189000000Y-77575000D01*
X177500000Y-74150000D02*
X185575000Y-74150000D01*
X175775000Y-72425000D02*
X177500000Y-74150000D01*
D27*
X178025000Y-77575000D02*
X176700000Y-77575000D01*
X181375000Y-80045000D02*
X180495000Y-80045000D01*
X180495000Y-80045000D02*
X178025000Y-77575000D01*
X182675000Y-80900000D02*
X183050000Y-81275000D01*
X184500000Y-81275000D02*
X185730000Y-80045000D01*
X185730000Y-80045000D02*
X186975000Y-80045000D01*
X182675000Y-78725000D02*
X182675000Y-80900000D01*
X181525000Y-77575000D02*
X182675000Y-78725000D01*
X180800000Y-77575000D02*
X181525000Y-77575000D01*
X183050000Y-81275000D02*
X184500000Y-81275000D01*
X175070000Y-80045000D02*
X172600000Y-77575000D01*
X175775000Y-80045000D02*
X175070000Y-80045000D01*
X170175000Y-79250000D02*
X170175000Y-80035000D01*
X168500000Y-77575000D02*
X170175000Y-79250000D01*
X164400000Y-77575000D02*
X164400000Y-79870000D01*
X158985000Y-78890000D02*
X160300000Y-77575000D01*
X158985000Y-80045000D02*
X158985000Y-78890000D01*
D28*
X162875000Y-74125000D02*
X164575000Y-72425000D01*
X147525000Y-74125000D02*
X162875000Y-74125000D01*
X145800000Y-72400000D02*
X147525000Y-74125000D01*
X174075000Y-74125000D02*
X166275000Y-74125000D01*
X166275000Y-74125000D02*
X164575000Y-72425000D01*
X175775000Y-72425000D02*
X174075000Y-74125000D01*
X129005000Y-72415000D02*
X130715000Y-74125000D01*
X130715000Y-74125000D02*
X144075000Y-74125000D01*
X144075000Y-74125000D02*
X145800000Y-72400000D01*
D27*
X144545000Y-81275000D02*
X145800000Y-80020000D01*
X139150000Y-81275000D02*
X144545000Y-81275000D01*
X138600000Y-80725000D02*
X139150000Y-81275000D01*
X138600000Y-79625000D02*
X138600000Y-80725000D01*
X138225000Y-79250000D02*
X138600000Y-79625000D01*
X138225000Y-78550000D02*
X138225000Y-79250000D01*
X137225000Y-77550000D02*
X138225000Y-78550000D01*
X136125000Y-77550000D02*
X137225000Y-77550000D01*
X127740000Y-80035000D02*
X126500000Y-81275000D01*
X129005000Y-80035000D02*
X127740000Y-80035000D01*
X131000000Y-81275000D02*
X133360000Y-81275000D01*
X130275000Y-80550000D02*
X131000000Y-81275000D01*
X129225000Y-77525000D02*
X130275000Y-78575000D01*
X130275000Y-78575000D02*
X130275000Y-80550000D01*
X127925000Y-77525000D02*
X129225000Y-77525000D01*
X133360000Y-81275000D02*
X134600000Y-80035000D01*
X125400000Y-81275000D02*
X126500000Y-81275000D01*
X124700000Y-80575000D02*
X125400000Y-81275000D01*
X124700000Y-78400000D02*
X124700000Y-80575000D01*
X123825000Y-77525000D02*
X124700000Y-78400000D01*
D28*
X181375000Y-71400000D02*
X181375000Y-72425000D01*
X173149880Y-59628900D02*
X173149880Y-63125060D01*
X191828900Y-65575060D02*
X187450000Y-65575060D01*
X187450000Y-65575060D02*
X187450000Y-68175000D01*
X172270920Y-58749940D02*
X173149880Y-59628900D01*
X187450000Y-68175000D02*
X185625000Y-70000000D01*
X147749940Y-59699820D02*
X147749940Y-63300000D01*
X185625000Y-70000000D02*
X182775000Y-70000000D01*
X147749940Y-63300000D02*
X145474940Y-65575000D01*
X193399940Y-58774940D02*
X194153900Y-59528900D01*
X170724880Y-65550060D02*
X153575060Y-65550060D01*
X153575060Y-65550060D02*
X146774940Y-58749940D01*
X187450000Y-65575060D02*
X179050060Y-65575060D01*
X146850000Y-58799880D02*
X147749940Y-59699820D01*
X182775000Y-70000000D02*
X181375000Y-71400000D01*
X194153900Y-63250060D02*
X191828900Y-65575060D01*
X173149880Y-63125060D02*
X170724880Y-65550060D01*
X194153900Y-59528900D02*
X194153900Y-63250060D01*
X145474940Y-65575000D02*
X132575060Y-65575000D01*
X179050060Y-65575060D02*
X172249940Y-58774940D01*
X132575060Y-65575000D02*
X125799940Y-58799880D01*
X162500060Y-67374940D02*
X137025060Y-67374940D01*
X183550060Y-67374940D02*
X162500060Y-67374940D01*
X137025000Y-67375000D02*
X119425000Y-67375000D01*
X137025060Y-67374940D02*
X137025000Y-67375000D01*
X119425000Y-67375000D02*
X115854020Y-63804020D01*
D27*
X162500000Y-62246920D02*
X162500000Y-63400000D01*
D28*
X115854020Y-63804020D02*
X115854020Y-62246920D01*
X159300000Y-69100000D02*
X133825000Y-69100000D01*
X112500000Y-60350760D02*
X114103960Y-58746800D01*
X180375000Y-69100000D02*
X159300000Y-69100000D01*
X117175000Y-69100000D02*
X112500000Y-64425000D01*
X133825000Y-69100000D02*
X117175000Y-69100000D01*
X112500000Y-64425000D02*
X112500000Y-60350760D01*
X170125000Y-52000000D02*
X168725000Y-50600000D01*
X177575000Y-52000000D02*
X170125000Y-52000000D01*
D27*
X168725000Y-50600000D02*
X168725000Y-50575000D01*
D28*
X122100000Y-50400000D02*
X117952420Y-50400000D01*
X117952420Y-50400000D02*
X114103960Y-54248460D01*
X168725000Y-50575000D02*
X164423400Y-50575000D01*
X179823460Y-54248460D02*
X177575000Y-52000000D01*
X181800000Y-54248460D02*
X179823460Y-54248460D01*
X123700000Y-52000000D02*
X122100000Y-50400000D01*
X164423400Y-50575000D02*
X160749940Y-54248460D01*
X144625000Y-52000000D02*
X143000000Y-50375000D01*
X160749940Y-54248460D02*
X153348460Y-54248460D01*
X143000000Y-50375000D02*
X139127420Y-50375000D01*
X139127420Y-50375000D02*
X135253960Y-54248460D01*
X135253960Y-54248460D02*
X131473460Y-54248460D01*
X151100000Y-52000000D02*
X144625000Y-52000000D01*
X129225000Y-52000000D02*
X123700000Y-52000000D01*
X153348460Y-54248460D02*
X151100000Y-52000000D01*
X131473460Y-54248460D02*
X129225000Y-52000000D01*
X110050000Y-53804080D02*
X114103960Y-49750120D01*
X112210000Y-72425000D02*
X112210000Y-67885000D01*
X134375000Y-45375000D02*
X136800000Y-42950000D01*
X113350000Y-45275000D02*
X115675000Y-42950000D01*
X175024880Y-42975000D02*
X181800000Y-49750120D01*
X115675000Y-42950000D02*
X128453840Y-42950000D01*
X153949820Y-42950000D02*
X160749940Y-49750120D01*
X110050000Y-65725000D02*
X110050000Y-53804080D01*
X159850000Y-48850180D02*
X159850000Y-45250000D01*
X112210000Y-67885000D02*
X110050000Y-65725000D01*
X113350000Y-48996160D02*
X113350000Y-45275000D01*
X162125000Y-42975000D02*
X175024880Y-42975000D01*
X114103960Y-49750120D02*
X113350000Y-48996160D01*
X135253960Y-49750120D02*
X134375000Y-48871160D01*
X134375000Y-48871160D02*
X134375000Y-45375000D01*
X159850000Y-45250000D02*
X162125000Y-42975000D01*
X136800000Y-42950000D02*
X153949820Y-42950000D01*
X128453840Y-42950000D02*
X135253960Y-49750120D01*
X160749940Y-49750120D02*
X159850000Y-48850180D01*
X137000000Y-41250000D02*
X162500000Y-41250000D01*
X178550060Y-41250000D02*
X183550060Y-46250000D01*
X162500000Y-41250000D02*
X178550060Y-41250000D01*
X166500000Y-39650000D02*
X181948780Y-39650000D01*
X166500000Y-39650000D02*
X140975000Y-39650000D01*
X181948780Y-39650000D02*
X187548020Y-45249240D01*
X123849940Y-38025000D02*
X145000000Y-38025000D01*
X145000000Y-38025000D02*
X170500000Y-38025000D01*
X128100000Y-36400000D02*
X148825000Y-36400000D01*
X148825000Y-36400000D02*
X174575000Y-36400000D01*
X189219500Y-58325000D02*
X193296040Y-54248460D01*
X139150000Y-58450000D02*
X142548460Y-58450000D01*
X174497520Y-56500000D02*
X183675000Y-56500000D01*
X146750000Y-54248460D02*
X149001540Y-56500000D01*
X142548460Y-58450000D02*
X146750000Y-54248460D01*
X196500000Y-57452420D02*
X193296040Y-54248460D01*
X168194440Y-58300000D02*
X172245980Y-54248460D01*
X137200000Y-56500000D02*
X139150000Y-58450000D01*
X127851540Y-56500000D02*
X137200000Y-56500000D01*
X149001540Y-56500000D02*
X162350000Y-56500000D01*
X196500000Y-66075000D02*
X196500000Y-57452420D01*
X186975000Y-71500000D02*
X188480000Y-69995000D01*
X192580000Y-69995000D02*
X196500000Y-66075000D01*
X183675000Y-56500000D02*
X185500000Y-58325000D01*
X188480000Y-69995000D02*
X192580000Y-69995000D01*
X185500000Y-58325000D02*
X189219500Y-58325000D01*
X164150000Y-58300000D02*
X168194440Y-58300000D01*
X162350000Y-56500000D02*
X164150000Y-58300000D01*
X186975000Y-72425000D02*
X186975000Y-71500000D01*
X125600000Y-54248460D02*
X127851540Y-56500000D01*
X172245980Y-54248460D02*
X174497520Y-56500000D01*
M02*
